<svg width="448" height="512" fill="none" xmlns="http://www.w3.org/2000/svg"><g clip-path="url(#clip0_1022_139)"><path d="M224.101 141c-63.6 0-114.9 51.3-114.9 114.9 0 63.6 51.3 114.9 114.9 114.9 63.6 0 114.9-51.3 114.9-114.9 0-63.6-51.3-114.9-114.9-114.9zm0 189.6c-41.1 0-74.7-33.5-74.7-74.7s33.5-74.7 74.7-74.7 74.7 33.5 74.7 74.7-33.6 74.7-74.7 74.7zm146.4-194.3c0 14.9-12 26.8-26.8 26.8-14.9 0-26.8-12-26.8-26.8s12-26.8 26.8-26.8 26.8 12 26.8 26.8zm76.1 27.2c-1.7-35.9-9.9-67.7-36.2-93.9-26.2-26.2-58-34.4-93.9-36.2-37-2.1-147.9-2.1-184.9 0-35.8 1.7-67.6 9.9-93.9 36.1-26.3 26.2-34.4 58-36.2 93.9-2.1 37-2.1 147.9 0 184.9 1.7 35.9 9.9 67.7 36.2 93.9 26.3 26.2 58 34.4 93.9 36.2 37 2.1 147.9 2.1 184.9 0 35.9-1.7 67.7-9.9 93.9-36.2 26.2-26.2 34.4-58 36.2-93.9 2.1-37 2.1-147.8 0-184.8zm-47.8 224.5c-7.8 19.6-22.9 34.7-42.6 42.6-29.5 11.7-99.5 9-132.1 9-32.6 0-102.7 2.6-132.1-9-19.6-7.8-34.7-22.9-42.6-42.6-11.7-29.5-9-99.5-9-132.1 0-32.6-2.6-102.7 9-132.1 7.8-19.6 22.9-34.7 42.6-42.6 29.5-11.7 99.5-9 132.1-9 32.6 0 102.7-2.6 132.1 9 19.6 7.8 34.7 22.9 42.6 42.6 11.7 29.5 9 99.5 9 132.1 0 32.6 2.7 102.7-9 132.1z" fill="#fff"/></g><defs><clipPath id="clip0_1022_139"><path fill="#fff" d="M0 0h448v512H0z"/></clipPath></defs></svg>