<svg width="496" height="512" fill="none" xmlns="http://www.w3.org/2000/svg"><path d="M362.952 176.66c-3.732 39.215-19.881 134.378-28.1 178.3-3.476 18.584-10.322 24.816-16.948 25.425-14.4 1.326-25.338-9.517-39.287-18.661-21.827-14.308-34.158-23.215-55.346-37.177-24.485-16.135-8.612-25 5.342-39.5 3.652-3.793 67.107-61.51 68.335-66.746.153-.655.3-3.1-1.154-4.384-1.454-1.284-3.59-.849-5.135-.5-2.189.497-37.058 23.545-104.608 69.142-9.897 6.796-18.861 10.107-26.894 9.934-8.855-.191-25.888-5.006-38.551-9.123-15.531-5.048-27.875-7.717-26.8-16.291.56-4.467 6.71-9.033 18.45-13.7 72.297-31.499 120.507-52.265 144.628-62.3 68.872-28.647 83.183-33.623 92.511-33.789 2.052-.034 6.639.474 9.61 2.885a10.452 10.452 0 013.53 6.716c.503 3.231.643 6.507.417 9.769z" fill="#fff"/></svg>