<svg width="167" height="28" fill="none" xmlns="http://www.w3.org/2000/svg"><g clip-path="url(#clip0_1015_198)" fill="#fff"><path d="M19.26 0v7.444h-.236A9.641 9.641 0 009.69.236h-.394v13.431c2.875 0 5.278-1.969 5.987-4.609h.236v9.454h-.236c-.709-2.64-3.112-4.61-5.987-4.61v11.07c0 1.298 1.064 2.363 2.402 2.363v.235H0v-.235a2.37 2.37 0 002.363-2.363V2.599A2.37 2.37 0 000 .236V0h19.26zm22.005 13.785c0-9.019-1.772-13.549-5.08-13.549s-5.081 4.53-5.081 13.549c0 9.02 1.773 13.55 5.081 13.55 3.308 0 5.08-4.53 5.08-13.55zm7.326 0c0 7.602-5.554 13.785-12.406 13.785-6.853 0-12.408-6.183-12.408-13.785C23.777 6.184 29.332 0 36.185 0c6.852 0 12.406 6.183 12.406 13.784zm17.156-2.404l7.799 13.786c.551.985 1.693 2.01 2.757 2.167v.236H63.936v-.236c.945-.04 1.654-.788 1.654-1.695 0-.354-.118-.668-.276-.905l-4.687-8.311-2.993 5.318a3.705 3.705 0 00-.473 1.851c0 1.929 1.457 3.544 3.309 3.742v.236H49.953v-.236c2.955-.394 6.065-3.192 7.562-5.87l2.993-5.276L52.71 2.402c-.55-.985-1.693-2.007-2.757-2.166V0H62.32v.236c-.906.04-1.654.788-1.654 1.693 0 .355.119.63.276.905l4.687 8.311 2.993-5.316a3.72 3.72 0 00.51-1.852c0-1.93-1.494-3.544-3.345-3.741V0h10.516v.236c-2.955.394-6.027 3.19-7.562 5.868l-2.994 5.277zM83.18 27.57a1.948 1.948 0 01-1.97-1.969 1.95 1.95 0 011.97-1.97 1.95 1.95 0 011.968 1.97 1.949 1.949 0 01-1.968 1.969zm25.243-6.972v6.972H90.066v-.237a2.369 2.369 0 002.364-2.363V2.598c0-1.3-1.06-2.363-2.364-2.363V0h11.699v.235c-1.338 0-2.403 1.063-2.403 2.363v24.735h.118c4.177 0 7.722-2.836 8.704-6.735h.239zm18.495.552c-1.261-3.623-1.851-5.277-3.622-10.436l-3.781 10.436h7.403zm11.423 6.185v.235h-12.132v-.235c1.302 0 2.364-1.34 1.931-2.64l-1.143-3.308h-7.561l-.276.708a4.537 4.537 0 00-.197 1.3c0 2.206 1.771 3.94 3.979 3.94v.235h-9.61v-.235c2.283-.317 4.489-2.285 5.316-4.492L126.918 0c4.728 13.588 5.277 15.28 8.863 25.52.354 1.066 1.379 1.815 2.56 1.815zm21.013-6.737c0-3.702-2.046-6.696-4.566-6.696h-2.247v13.431h2.247c2.52 0 4.566-2.993 4.566-6.735zm-6.813-6.931H154c2.204 0 3.976-2.995 3.976-6.697 0-3.742-1.772-6.735-3.976-6.735h-1.459v13.432zm14.732 6.97c0 3.822-3.507 6.933-7.84 6.933h-16.187v-.237a2.37 2.37 0 002.362-2.363V2.598a2.37 2.37 0 00-2.362-2.363V0h14.809c3.819 0 6.892 3.11 6.892 6.97 0 3.19-2.205 5.91-5.118 6.697 4.135.197 7.444 3.229 7.444 6.97z"/></g><defs><clipPath id="clip0_1015_198"><path fill="#fff" d="M0 0h167v28H0z"/></clipPath></defs></svg>