<svg width="190" height="32" fill="none" xmlns="http://www.w3.org/2000/svg"><path d="M22.289.692V9.08h-.267C20.825 4.42 16.565.958 11.505.958h-.444v15.134c3.24 0 5.948-2.219 6.746-5.193h.266v10.653h-.266c-.798-2.975-3.506-5.194-6.746-5.194V28.83c0 1.463 1.198 2.663 2.706 2.663v.265H.586v-.265c1.465 0 2.663-1.2 2.663-2.663V3.62A2.67 2.67 0 00.586.957V.692h21.703zm24.795 15.532C47.084 6.062 45.088.958 41.36.958s-5.725 5.104-5.725 15.266c0 10.164 1.997 15.268 5.726 15.268 3.727 0 5.723-5.104 5.723-15.268zm8.256 0c0 8.567-6.258 15.534-13.98 15.534S27.38 24.79 27.38 16.224C27.379 7.66 33.638.693 41.36.693c7.72 0 13.98 6.966 13.98 15.531zm19.332-2.708l8.788 15.535c.622 1.11 1.909 2.264 3.107 2.441v.267H72.63v-.267c1.065-.045 1.864-.888 1.864-1.91 0-.398-.133-.752-.31-1.02l-5.282-9.364-3.373 5.992a4.174 4.174 0 00-.532 2.086c0 2.174 1.641 3.994 3.728 4.216v.267h-11.85v-.267c3.33-.444 6.834-3.596 8.521-6.614l3.372-5.946L59.982 3.4c-.62-1.11-1.909-2.263-3.107-2.441V.692h13.936v.266c-1.021.044-1.864.888-1.864 1.907 0 .4.133.71.31 1.02l5.282 9.366 3.373-5.99a4.194 4.194 0 00.575-2.087c0-2.175-1.684-3.995-3.77-4.216V.692h11.85v.266c-3.33.444-6.792 3.594-8.521 6.611l-3.374 5.947zm19.64 18.242a2.196 2.196 0 01-2.218-2.219c0-1.244.974-2.22 2.218-2.22s2.219.976 2.219 2.22a2.196 2.196 0 01-2.219 2.219zm28.448-7.855v7.856h-20.686v-.267a2.67 2.67 0 002.664-2.663V3.62a2.669 2.669 0 00-2.664-2.663V.692h13.183v.265c-1.508 0-2.708 1.198-2.708 2.663v27.872h.133c4.707 0 8.701-3.196 9.808-7.59h.27zm20.842.621c-1.42-4.083-2.085-5.947-4.081-11.76l-4.26 11.76h8.341zm12.872 6.97v.265h-13.671v-.265c1.467 0 2.665-1.51 2.177-2.975l-1.288-3.728h-8.521l-.31.799a5.107 5.107 0 00-.223 1.463c0 2.487 1.996 4.44 4.484 4.44v.266h-10.829v-.265c2.573-.358 5.059-2.575 5.991-5.062l9.318-25.74c5.328 15.31 5.947 17.219 9.988 28.758.399 1.2 1.554 2.044 2.884 2.044zm23.681-7.591c0-4.172-2.305-7.546-5.146-7.546h-2.532v15.135h2.532c2.841 0 5.146-3.373 5.146-7.59zm-7.678-7.811h1.644c2.484 0 4.48-3.375 4.48-7.547 0-4.216-1.996-7.588-4.48-7.588h-1.644v15.135zm16.6 7.855c0 4.306-3.95 7.812-8.833 7.812h-18.24v-.267a2.67 2.67 0 002.661-2.663V3.62a2.67 2.67 0 00-2.661-2.662V.692h16.687c4.304 0 7.766 3.505 7.766 7.853 0 3.596-2.485 6.66-5.768 7.547 4.66.223 8.388 3.639 8.388 7.855z" fill="#182A31"/></svg>