<svg width="448" height="512" viewBox="0 0 448 512" fill="none" xmlns="http://www.w3.org/2000/svg">
<g clip-path="url(#clip0_1022_139)">
<path d="M224.101 141C160.501 141 109.201 192.3 109.201 255.9C109.201 319.5 160.501 370.8 224.101 370.8C287.701 370.8 339.001 319.5 339.001 255.9C339.001 192.3 287.701 141 224.101 141ZM224.101 330.6C183.001 330.6 149.401 297.1 149.401 255.9C149.401 214.7 182.901 181.2 224.101 181.2C265.301 181.2 298.801 214.7 298.801 255.9C298.801 297.1 265.201 330.6 224.101 330.6V330.6ZM370.501 136.3C370.501 151.2 358.501 163.1 343.701 163.1C328.801 163.1 316.901 151.1 316.901 136.3C316.901 121.5 328.901 109.5 343.701 109.5C358.501 109.5 370.501 121.5 370.501 136.3ZM446.601 163.5C444.901 127.6 436.701 95.7999 410.401 69.5999C384.201 43.3999 352.401 35.2 316.501 33.4C279.501 31.3 168.601 31.3 131.601 33.4C95.8008 35.1 64.0008 43.2999 37.7008 69.5C11.4008 95.7 3.30078 127.5 1.50078 163.4C-0.599219 200.4 -0.599219 311.3 1.50078 348.3C3.20078 384.2 11.4008 416 37.7008 442.2C64.0008 468.4 95.7008 476.6 131.601 478.4C168.601 480.5 279.501 480.5 316.501 478.4C352.401 476.7 384.201 468.5 410.401 442.2C436.601 416 444.801 384.2 446.601 348.3C448.701 311.3 448.701 200.5 446.601 163.5V163.5ZM398.801 388C391.001 407.6 375.901 422.7 356.201 430.6C326.701 442.3 256.701 439.6 224.101 439.6C191.501 439.6 121.401 442.2 92.0008 430.6C72.4008 422.8 57.3008 407.7 49.4008 388C37.7008 358.5 40.4008 288.5 40.4008 255.9C40.4008 223.3 37.8008 153.2 49.4008 123.8C57.2008 104.2 72.3008 89.0999 92.0008 81.1999C121.501 69.4999 191.501 72.1999 224.101 72.1999C256.701 72.1999 326.801 69.5999 356.201 81.1999C375.801 88.9999 390.901 104.1 398.801 123.8C410.501 153.3 407.801 223.3 407.801 255.9C407.801 288.5 410.501 358.6 398.801 388Z" fill="white"/>
</g>
<defs>
<clipPath id="clip0_1022_139">
<rect width="448" height="512" fill="white"/>
</clipPath>
</defs>
</svg>
