<svg width="448" height="512" viewBox="0 0 448 512" fill="none" xmlns="http://www.w3.org/2000/svg">
<path d="M126.147 163H75C77.4267 279.48 135.667 349.48 237.773 349.48H243.56V282.84C261.573 285.101 278.517 292.632 292.265 304.487C306.014 316.343 315.955 331.995 320.84 349.48H373.853C368.41 329.351 358.757 310.606 345.532 294.484C332.307 278.363 315.81 265.232 297.133 255.96C313.861 245.804 328.313 232.307 339.586 216.312C350.86 200.316 358.713 182.168 362.653 163H314.493C304.04 199.96 273.053 233.56 243.56 236.733V199.867V163H195.4V292.173C165.533 284.706 127.827 248.493 126.147 163Z" fill="white"/>
</svg>
