<svg width="167" height="28" viewBox="0 0 167 28" fill="none" xmlns="http://www.w3.org/2000/svg">
<g clip-path="url(#clip0_1015_198)">
<path d="M19.26 0.000488281V7.44424H19.0236C17.961 3.30864 14.1803 0.235963 9.68969 0.235963H9.29603V13.6672C12.1711 13.6672 14.5743 11.698 15.2831 9.05821H15.5185V18.5124H15.2831C14.5743 15.8724 12.1711 13.9026 9.29603 13.9026V23.3545V24.9718C9.29603 26.2698 10.3595 27.3349 11.6978 27.3349V27.5702H0V27.3349C1.3004 27.3349 2.36296 26.2698 2.36296 24.9718V2.59893C2.36296 1.29948 1.3004 0.235963 0 0.235963V0.000488281H11.2256H19.26Z" fill="white"/>
<path d="M41.2647 13.7847C41.2647 4.76607 39.4933 0.236324 36.1852 0.236324C32.8767 0.236324 31.104 4.76607 31.104 13.7847C31.104 22.8046 32.8767 27.3343 36.1852 27.3343C39.4933 27.3343 41.2647 22.8046 41.2647 13.7847ZM48.5914 13.7847C48.5914 21.3871 43.0373 27.5697 36.1852 27.5697C29.3316 27.5697 23.7773 21.3871 23.7773 13.7847C23.7773 6.18362 29.3316 0.000976562 36.1852 0.000976562C43.0373 0.000976562 48.5914 6.18362 48.5914 13.7847Z" fill="white"/>
<path d="M65.7472 11.381L73.5459 25.167C74.0973 26.1517 75.2394 27.1765 76.3029 27.3339V27.5702H63.9356V27.3339C64.8808 27.2936 65.5899 26.5456 65.5899 25.6394C65.5899 25.2855 65.4715 24.9709 65.3142 24.7341L60.6271 16.423L57.6336 21.7405C57.3186 22.293 57.1613 22.9225 57.1613 23.5923C57.1613 25.5209 58.618 27.1363 60.4698 27.3339V27.5702H49.9531V27.3339C52.9077 26.9398 56.0183 24.1423 57.5153 21.4634L60.5077 16.1875L52.71 2.40239C52.1597 1.41686 51.0166 0.394519 49.9531 0.235963V0.000488281H62.3203V0.235963C61.4141 0.275129 60.666 1.02413 60.666 1.92909C60.666 2.2843 60.7845 2.5587 60.9417 2.8344L65.6288 11.1455L68.6224 5.82922C68.9383 5.27782 69.1325 4.64726 69.1325 3.97742C69.1325 2.04752 67.6379 0.432502 65.7874 0.235963V0.000488281H76.3029V0.235963C73.3483 0.629987 70.2756 3.42602 68.7408 6.10362L65.7472 11.381Z" fill="white"/>
<path d="M83.1797 27.5699C82.0755 27.5699 81.2109 26.7039 81.2109 25.6011C81.2109 24.4973 82.0755 23.6309 83.1797 23.6309C84.2836 23.6309 85.1485 24.4973 85.1485 25.6011C85.1485 26.7039 84.2836 27.5699 83.1797 27.5699Z" fill="white"/>
<path d="M108.423 20.5983V25.4436V27.5701H100.032H98.2606H90.0664V27.3334C91.3692 27.3334 92.4304 26.2697 92.4304 24.9704V7.12676V2.59844C92.4304 1.29804 91.3692 0.235474 90.0664 0.235474V0H92.4304H93.5733H98.2606H99.7584H101.765V0.235474C100.427 0.235474 99.362 1.29804 99.362 2.59844V7.12676V8.86023V27.3334H99.4804C103.657 27.3334 107.202 24.4971 108.184 20.5983H108.423Z" fill="white"/>
<path d="M126.918 21.1499C125.657 17.5267 125.067 15.8725 123.296 10.7135L119.515 21.1499H126.918ZM138.341 27.3349V27.5702H126.209V27.3349C127.511 27.3349 128.573 25.9955 128.14 24.6949L126.997 21.3867H119.436L119.16 22.0954C119.043 22.4895 118.963 22.9224 118.963 23.3944C118.963 25.6014 120.734 27.3349 122.942 27.3349V27.5702H113.332V27.3349C115.615 27.0179 117.821 25.0501 118.648 22.8433L126.918 0.000488281C131.646 13.5877 132.195 15.2808 135.781 25.5208C136.135 26.5858 137.16 27.3349 138.341 27.3349Z" fill="white"/>
<path d="M159.354 20.5983C159.354 16.896 157.308 13.9021 154.788 13.9021H152.659H152.541V27.3334H152.738H154.788C157.308 27.3334 159.354 24.3397 159.354 20.5983ZM152.541 13.6666H152.621H154C156.204 13.6666 157.976 10.6718 157.976 6.96951C157.976 3.22793 156.204 0.235474 154 0.235474H152.541V13.6666ZM167.273 20.6372C167.273 24.4592 163.766 27.5701 159.433 27.5701H152.541H146.75H145.608H143.246V27.3334C144.544 27.3334 145.608 26.2697 145.608 24.9704V2.59844C145.608 1.29804 144.544 0.235474 143.246 0.235474V0H145.608H158.055C161.874 0 164.947 3.11091 164.947 6.96951C164.947 10.1606 162.742 12.8797 159.829 13.6666C163.964 13.8642 167.273 16.896 167.273 20.6372Z" fill="white"/>
</g>
<defs>
<clipPath id="clip0_1015_198">
<rect width="167" height="28" fill="white"/>
</clipPath>
</defs>
</svg>
